<mxfile host="65bd71144e">
    <diagram id="_s80AwUJOuV4DMhr4sAa" name="Page-1">
        <mxGraphModel dx="1386" dy="462" grid="1" gridSize="10" guides="1" tooltips="1" connect="1" arrows="1" fold="1" page="0" pageScale="1" pageWidth="1100" pageHeight="850" background="none" math="0" shadow="0">
            <root>
                <mxCell id="0"/>
                <mxCell id="1" parent="0"/>
                <mxCell id="62" style="edgeStyle=none;html=1;exitX=1;exitY=0.5;exitDx=0;exitDy=0;strokeWidth=1;fillColor=#76608a;strokeColor=#432D57;dashed=1;dashPattern=1 1;flowAnimation=1;" parent="1" source="46" target="58" edge="1">
                    <mxGeometry relative="1" as="geometry"/>
                </mxCell>
                <mxCell id="79" style="edgeStyle=none;html=1;exitX=1;exitY=0.5;exitDx=0;exitDy=0;strokeWidth=1;fillColor=#76608a;strokeColor=#432D57;dashed=1;dashPattern=1 1;flowAnimation=1;" parent="1" source="46" target="63" edge="1">
                    <mxGeometry relative="1" as="geometry"/>
                </mxCell>
                <mxCell id="80" style="edgeStyle=none;html=1;exitX=1;exitY=0.5;exitDx=0;exitDy=0;strokeWidth=1;fillColor=#76608a;strokeColor=#432D57;dashed=1;dashPattern=1 1;flowAnimation=1;" parent="1" source="46" target="64" edge="1">
                    <mxGeometry relative="1" as="geometry"/>
                </mxCell>
                <mxCell id="92" style="edgeStyle=none;html=1;exitX=1;exitY=0.5;exitDx=0;exitDy=0;strokeWidth=1;fillColor=#76608a;strokeColor=#432D57;dashed=1;dashPattern=1 1;flowAnimation=1;" parent="1" source="50" target="65" edge="1">
                    <mxGeometry relative="1" as="geometry"/>
                </mxCell>
                <mxCell id="93" style="edgeStyle=none;html=1;exitX=1;exitY=0.5;exitDx=0;exitDy=0;strokeWidth=1;fillColor=#76608a;strokeColor=#432D57;dashed=1;dashPattern=1 1;flowAnimation=1;" parent="1" source="50" target="66" edge="1">
                    <mxGeometry relative="1" as="geometry"/>
                </mxCell>
                <mxCell id="61" style="edgeStyle=none;html=1;exitX=1;exitY=0.5;exitDx=0;exitDy=0;dashed=1;dashPattern=1 1;strokeWidth=1;fillColor=#647687;strokeColor=#314354;flowAnimation=1;" parent="1" source="42" target="58" edge="1">
                    <mxGeometry relative="1" as="geometry"/>
                </mxCell>
                <mxCell id="75" style="edgeStyle=none;html=1;exitX=1;exitY=0.5;exitDx=0;exitDy=0;dashed=1;dashPattern=1 1;strokeWidth=1;fillColor=#647687;strokeColor=#314354;flowAnimation=1;" parent="1" source="42" target="63" edge="1">
                    <mxGeometry relative="1" as="geometry"/>
                </mxCell>
                <mxCell id="76" style="edgeStyle=none;html=1;exitX=1;exitY=0.5;exitDx=0;exitDy=0;dashed=1;dashPattern=1 1;strokeWidth=1;fillColor=#647687;strokeColor=#314354;flowAnimation=1;" parent="1" source="42" target="64" edge="1">
                    <mxGeometry relative="1" as="geometry"/>
                </mxCell>
                <mxCell id="77" style="edgeStyle=none;html=1;exitX=1;exitY=0.5;exitDx=0;exitDy=0;dashed=1;dashPattern=1 1;strokeWidth=1;fillColor=#647687;strokeColor=#314354;flowAnimation=1;" parent="1" source="42" target="65" edge="1">
                    <mxGeometry relative="1" as="geometry"/>
                </mxCell>
                <mxCell id="78" style="edgeStyle=none;html=1;exitX=1;exitY=0.5;exitDx=0;exitDy=0;dashed=1;dashPattern=1 1;strokeWidth=1;fillColor=#647687;strokeColor=#314354;flowAnimation=1;" parent="1" source="42" target="66" edge="1">
                    <mxGeometry relative="1" as="geometry"/>
                </mxCell>
                <mxCell id="4" value="isolate" style="rounded=0;whiteSpace=wrap;html=1;strokeWidth=0.5;fillColor=#e51400;fillStyle=solid;fontColor=#ffffff;fontStyle=1;strokeColor=#B20000;" parent="1" vertex="1">
                    <mxGeometry x="474" y="890" width="170" height="20" as="geometry"/>
                </mxCell>
                <mxCell id="7" value="CMW14797" style="rounded=0;whiteSpace=wrap;html=1;strokeWidth=0.5;fillColor=#e51400;fillStyle=solid;fontColor=#ffffff;fontStyle=1;strokeColor=#B20000;" parent="1" vertex="1">
                    <mxGeometry x="644" y="890" width="170" height="20" as="geometry"/>
                </mxCell>
                <mxCell id="13" style="edgeStyle=none;html=1;entryX=0;entryY=0.5;entryDx=0;entryDy=0;exitX=1;exitY=0.5;exitDx=0;exitDy=0;flowAnimation=1;" parent="1" source="8" target="4" edge="1">
                    <mxGeometry relative="1" as="geometry"/>
                </mxCell>
                <mxCell id="14" style="edgeStyle=none;html=1;exitX=1;exitY=0.5;exitDx=0;exitDy=0;entryX=0;entryY=0.5;entryDx=0;entryDy=0;flowAnimation=1;" parent="1" source="8" target="9" edge="1">
                    <mxGeometry relative="1" as="geometry">
                        <mxPoint x="444" y="940" as="targetPoint"/>
                    </mxGeometry>
                </mxCell>
                <mxCell id="15" style="edgeStyle=none;html=1;entryX=0;entryY=0.5;entryDx=0;entryDy=0;exitX=1;exitY=0.5;exitDx=0;exitDy=0;flowAnimation=1;" parent="1" source="8" target="11" edge="1">
                    <mxGeometry relative="1" as="geometry"/>
                </mxCell>
                <mxCell id="9" value="specimen_voucher" style="rounded=0;whiteSpace=wrap;html=1;strokeWidth=0.5;fillColor=#e51400;fillStyle=solid;fontColor=#ffffff;fontStyle=1;strokeColor=#B20000;" parent="1" vertex="1">
                    <mxGeometry x="474" y="920" width="170" height="20" as="geometry"/>
                </mxCell>
                <mxCell id="10" value="CMW14797" style="rounded=0;whiteSpace=wrap;html=1;strokeWidth=0.5;fillColor=#e51400;fillStyle=solid;fontColor=#ffffff;fontStyle=1;strokeColor=#B20000;" parent="1" vertex="1">
                    <mxGeometry x="644" y="920" width="170" height="20" as="geometry"/>
                </mxCell>
                <mxCell id="11" value="strain" style="rounded=0;whiteSpace=wrap;html=1;strokeWidth=0.5;fillColor=#e51400;fillStyle=solid;fontColor=#ffffff;fontStyle=1;strokeColor=#B20000;" parent="1" vertex="1">
                    <mxGeometry x="474" y="950" width="170" height="20" as="geometry"/>
                </mxCell>
                <mxCell id="12" value="CMW14797" style="rounded=0;whiteSpace=wrap;html=1;strokeWidth=0.5;fillColor=#e51400;fillStyle=solid;fontColor=#ffffff;fontStyle=1;strokeColor=#B20000;" parent="1" vertex="1">
                    <mxGeometry x="644" y="950" width="170" height="20" as="geometry"/>
                </mxCell>
                <mxCell id="16" value="organism" style="rounded=0;whiteSpace=wrap;html=1;strokeWidth=0.5;fillColor=#f0a30a;fillStyle=solid;fontColor=#000000;fontStyle=1;strokeColor=#BD7000;" parent="1" vertex="1">
                    <mxGeometry x="474" y="1040" width="170" height="20" as="geometry"/>
                </mxCell>
                <mxCell id="17" value="Ceratocystis fimbriata" style="rounded=0;whiteSpace=wrap;html=1;strokeWidth=0.5;fillColor=#f0a30a;fillStyle=solid;fontColor=#000000;fontStyle=1;strokeColor=#BD7000;" parent="1" vertex="1">
                    <mxGeometry x="644" y="1040" width="170" height="20" as="geometry"/>
                </mxCell>
                <mxCell id="18" value="organism" style="rounded=0;whiteSpace=wrap;html=1;strokeWidth=0.5;fillColor=#f0a30a;fillStyle=solid;fontColor=#000000;fontStyle=1;strokeColor=#BD7000;" parent="1" vertex="1">
                    <mxGeometry x="474" y="1070" width="170" height="20" as="geometry"/>
                </mxCell>
                <mxCell id="19" value="Ceratocystis mangicola" style="rounded=0;whiteSpace=wrap;html=1;strokeWidth=0.5;fillColor=#f0a30a;fillStyle=solid;fontColor=#000000;fontStyle=1;strokeColor=#BD7000;" parent="1" vertex="1">
                    <mxGeometry x="644" y="1070" width="170" height="20" as="geometry"/>
                </mxCell>
                <mxCell id="21" style="edgeStyle=none;html=1;entryX=0;entryY=0.5;entryDx=0;entryDy=0;exitX=1;exitY=0.5;exitDx=0;exitDy=0;flowAnimation=1;" parent="1" source="20" target="16" edge="1">
                    <mxGeometry relative="1" as="geometry"/>
                </mxCell>
                <mxCell id="22" style="edgeStyle=none;html=1;entryX=0;entryY=0.5;entryDx=0;entryDy=0;exitX=1;exitY=0.5;exitDx=0;exitDy=0;flowAnimation=1;" parent="1" source="20" target="18" edge="1">
                    <mxGeometry relative="1" as="geometry"/>
                </mxCell>
                <mxCell id="25" style="edgeStyle=none;html=1;entryX=0;entryY=0.5;entryDx=0;entryDy=0;exitX=1;exitY=0.5;exitDx=0;exitDy=0;flowAnimation=1;" parent="1" source="20" target="23" edge="1">
                    <mxGeometry relative="1" as="geometry"/>
                </mxCell>
                <mxCell id="23" value="type_material" style="rounded=0;whiteSpace=wrap;html=1;strokeWidth=0.5;fillColor=#f0a30a;fillStyle=solid;fontColor=#000000;fontStyle=1;strokeColor=#BD7000;" parent="1" vertex="1">
                    <mxGeometry x="474" y="1100" width="170" height="30" as="geometry"/>
                </mxCell>
                <mxCell id="24" value="type material of Ceratocystis mangicola" style="rounded=0;whiteSpace=wrap;html=1;strokeWidth=0.5;fillColor=#f0a30a;fillStyle=solid;fontColor=#000000;fontStyle=1;strokeColor=#BD7000;" parent="1" vertex="1">
                    <mxGeometry x="644" y="1100" width="170" height="30" as="geometry"/>
                </mxCell>
                <mxCell id="26" value="host" style="rounded=0;whiteSpace=wrap;html=1;strokeWidth=0.5;fillColor=#e3c800;fillStyle=solid;fontColor=#000000;fontStyle=1;strokeColor=#B09500;" parent="1" vertex="1">
                    <mxGeometry x="474" y="1235" width="170" height="20" as="geometry"/>
                </mxCell>
                <mxCell id="27" value="Mangifera indica" style="rounded=0;whiteSpace=wrap;html=1;strokeWidth=0.5;fillColor=#e3c800;fillStyle=solid;fontColor=#000000;fontStyle=1;strokeColor=#B09500;" parent="1" vertex="1">
                    <mxGeometry x="644" y="1235" width="170" height="20" as="geometry"/>
                </mxCell>
                <mxCell id="28" value="host" style="rounded=0;whiteSpace=wrap;html=1;strokeWidth=0.5;fillColor=#e3c800;fillStyle=solid;fontColor=#000000;fontStyle=1;strokeColor=#B09500;" parent="1" vertex="1">
                    <mxGeometry x="474" y="1205" width="170" height="20" as="geometry"/>
                </mxCell>
                <mxCell id="29" value="mango" style="rounded=0;whiteSpace=wrap;html=1;strokeWidth=0.5;fillColor=#e3c800;fillStyle=solid;fontColor=#000000;fontStyle=1;strokeColor=#B09500;" parent="1" vertex="1">
                    <mxGeometry x="644" y="1205" width="170" height="20" as="geometry"/>
                </mxCell>
                <mxCell id="31" style="edgeStyle=none;html=1;entryX=0;entryY=0.5;entryDx=0;entryDy=0;exitX=1;exitY=0.5;exitDx=0;exitDy=0;flowAnimation=1;" parent="1" source="30" target="26" edge="1">
                    <mxGeometry relative="1" as="geometry"/>
                </mxCell>
                <mxCell id="32" style="edgeStyle=none;html=1;entryX=0;entryY=0.5;entryDx=0;entryDy=0;exitX=1;exitY=0.5;exitDx=0;exitDy=0;flowAnimation=1;" parent="1" source="30" target="28" edge="1">
                    <mxGeometry relative="1" as="geometry"/>
                </mxCell>
                <mxCell id="33" value="country" style="rounded=0;whiteSpace=wrap;html=1;strokeWidth=0.5;fillColor=#6d8764;fillStyle=solid;fontColor=#ffffff;fontStyle=1;strokeColor=#3A5431;" parent="1" vertex="1">
                    <mxGeometry x="474" y="1313" width="170" height="20" as="geometry"/>
                </mxCell>
                <mxCell id="34" value="Brazil" style="rounded=0;whiteSpace=wrap;html=1;strokeWidth=0.5;fillColor=#6d8764;fillStyle=solid;fontColor=#ffffff;fontStyle=1;strokeColor=#3A5431;" parent="1" vertex="1">
                    <mxGeometry x="644" y="1313" width="170" height="20" as="geometry"/>
                </mxCell>
                <mxCell id="36" style="edgeStyle=none;html=1;entryX=0;entryY=0.5;entryDx=0;entryDy=0;flowAnimation=1;" parent="1" source="35" target="33" edge="1">
                    <mxGeometry relative="1" as="geometry"/>
                </mxCell>
                <mxCell id="41" value="mol_type" style="rounded=0;whiteSpace=wrap;html=1;strokeWidth=0.5;fillColor=#647687;fillStyle=solid;fontColor=#ffffff;fontStyle=1;strokeColor=#314354;" parent="1" vertex="1">
                    <mxGeometry x="474" y="1353" width="170" height="20" as="geometry"/>
                </mxCell>
                <mxCell id="42" value="genomic DNA" style="rounded=0;whiteSpace=wrap;html=1;strokeWidth=0.5;fillColor=#647687;fillStyle=solid;fontColor=#ffffff;fontStyle=1;strokeColor=#314354;" parent="1" vertex="1">
                    <mxGeometry x="644" y="1353" width="170" height="20" as="geometry"/>
                </mxCell>
                <mxCell id="43" style="edgeStyle=none;html=1;entryX=0;entryY=0.5;entryDx=0;entryDy=0;flowAnimation=1;" parent="1" source="44" target="41" edge="1">
                    <mxGeometry relative="1" as="geometry"/>
                </mxCell>
                <mxCell id="45" value="db_xref" style="rounded=0;whiteSpace=wrap;html=1;strokeWidth=0.5;fillColor=#76608a;fillStyle=solid;fontColor=#ffffff;fontStyle=1;strokeColor=#432D57;" parent="1" vertex="1">
                    <mxGeometry x="474" y="1440" width="170" height="20" as="geometry"/>
                </mxCell>
                <mxCell id="46" value="taxon:5158" style="rounded=0;whiteSpace=wrap;html=1;strokeWidth=0.5;fillColor=#76608a;fillStyle=solid;fontColor=#ffffff;fontStyle=1;strokeColor=#432D57;" parent="1" vertex="1">
                    <mxGeometry x="644" y="1440" width="170" height="20" as="geometry"/>
                </mxCell>
                <mxCell id="47" style="edgeStyle=none;html=1;entryX=0;entryY=0.5;entryDx=0;entryDy=0;exitX=1;exitY=0.5;exitDx=0;exitDy=0;flowAnimation=1;" parent="1" source="48" target="45" edge="1">
                    <mxGeometry relative="1" as="geometry"/>
                </mxCell>
                <mxCell id="51" style="edgeStyle=none;html=1;entryX=0;entryY=0.5;entryDx=0;entryDy=0;exitX=1;exitY=0.5;exitDx=0;exitDy=0;flowAnimation=1;" parent="1" source="48" target="49" edge="1">
                    <mxGeometry relative="1" as="geometry"/>
                </mxCell>
                <mxCell id="49" value="db_xref" style="rounded=0;whiteSpace=wrap;html=1;strokeWidth=0.5;fillColor=#76608a;fillStyle=solid;fontColor=#ffffff;fontStyle=1;strokeColor=#432D57;" parent="1" vertex="1">
                    <mxGeometry x="474" y="1470" width="170" height="20" as="geometry"/>
                </mxCell>
                <mxCell id="50" value="taxon:627142" style="rounded=0;whiteSpace=wrap;html=1;strokeWidth=0.5;fillColor=#76608a;fillStyle=solid;fontColor=#ffffff;fontStyle=1;strokeColor=#432D57;" parent="1" vertex="1">
                    <mxGeometry x="644" y="1470" width="170" height="20" as="geometry"/>
                </mxCell>
                <mxCell id="95" style="edgeStyle=none;html=1;strokeWidth=1;flowAnimation=1;" parent="1" source="58" target="94" edge="1">
                    <mxGeometry relative="1" as="geometry"/>
                </mxCell>
                <mxCell id="96" style="edgeStyle=none;html=1;strokeWidth=1;flowAnimation=1;" parent="1" source="63" target="94" edge="1">
                    <mxGeometry relative="1" as="geometry"/>
                </mxCell>
                <mxCell id="97" style="edgeStyle=none;html=1;strokeWidth=1;flowAnimation=1;" parent="1" source="64" target="94" edge="1">
                    <mxGeometry relative="1" as="geometry"/>
                </mxCell>
                <mxCell id="98" style="edgeStyle=none;html=1;strokeWidth=1;flowAnimation=1;" parent="1" source="65" target="94" edge="1">
                    <mxGeometry relative="1" as="geometry"/>
                </mxCell>
                <mxCell id="99" style="edgeStyle=none;html=1;strokeWidth=1;flowAnimation=1;" parent="1" source="66" target="94" edge="1">
                    <mxGeometry relative="1" as="geometry"/>
                </mxCell>
                <mxCell id="105" value="Key Groups" style="text;html=1;strokeColor=none;fillColor=none;align=center;verticalAlign=middle;whiteSpace=wrap;rounded=0;fontSize=14;" parent="1" vertex="1">
                    <mxGeometry x="213.5" y="837" width="137" height="30" as="geometry"/>
                </mxCell>
                <mxCell id="106" value="Keys" style="text;html=1;strokeColor=none;fillColor=none;align=center;verticalAlign=middle;whiteSpace=wrap;rounded=0;fontSize=14;" parent="1" vertex="1">
                    <mxGeometry x="494" y="837" width="137" height="30" as="geometry"/>
                </mxCell>
                <mxCell id="107" value="Values" style="text;html=1;strokeColor=none;fillColor=none;align=center;verticalAlign=middle;whiteSpace=wrap;rounded=0;fontSize=14;" parent="1" vertex="1">
                    <mxGeometry x="660" y="837" width="137" height="30" as="geometry"/>
                </mxCell>
                <mxCell id="8" value="SPECIMEN" style="shape=step;perimeter=stepPerimeter;whiteSpace=wrap;html=1;fixedSize=1;size=10;strokeWidth=0.5;fillStyle=solid;fillColor=#e51400;fontColor=#ffffff;fontStyle=1;strokeColor=#B20000;" parent="1" vertex="1">
                    <mxGeometry x="207" y="915" width="160" height="30" as="geometry"/>
                </mxCell>
                <mxCell id="20" value="TAXONOMY" style="shape=step;perimeter=stepPerimeter;whiteSpace=wrap;html=1;fixedSize=1;size=10;strokeWidth=0.5;fillStyle=solid;fillColor=#f0a30a;fontColor=#000000;fontStyle=1;strokeColor=#BD7000;" parent="1" vertex="1">
                    <mxGeometry x="207" y="1065" width="160" height="30" as="geometry"/>
                </mxCell>
                <mxCell id="30" value="HOST_SUBSTRATE" style="shape=step;perimeter=stepPerimeter;whiteSpace=wrap;html=1;fixedSize=1;size=10;strokeWidth=0.5;fillStyle=solid;fillColor=#e3c800;fontColor=#000000;fontStyle=1;strokeColor=#B09500;" parent="1" vertex="1">
                    <mxGeometry x="207" y="1215" width="160" height="30" as="geometry"/>
                </mxCell>
                <mxCell id="48" value="EXTERNAL_LINKS" style="shape=step;perimeter=stepPerimeter;whiteSpace=wrap;html=1;fixedSize=1;size=10;strokeWidth=0.5;fillStyle=solid;fillColor=#76608a;fontColor=#ffffff;fontStyle=1;strokeColor=#432D57;" parent="1" vertex="1">
                    <mxGeometry x="207" y="1450" width="160" height="30" as="geometry"/>
                </mxCell>
                <mxCell id="35" value="GEO_REFERENCES" style="shape=step;perimeter=stepPerimeter;whiteSpace=wrap;html=1;fixedSize=1;size=10;strokeWidth=0.5;fillStyle=solid;fillColor=#6d8764;fontColor=#ffffff;fontStyle=1;strokeColor=#3A5431;" parent="1" vertex="1">
                    <mxGeometry x="207" y="1308" width="160" height="30" as="geometry"/>
                </mxCell>
                <mxCell id="44" value="ASSAY" style="shape=step;perimeter=stepPerimeter;whiteSpace=wrap;html=1;fixedSize=1;size=10;strokeWidth=0.5;fillStyle=solid;fillColor=#647687;fontColor=#ffffff;fontStyle=1;strokeColor=#314354;" parent="1" vertex="1">
                    <mxGeometry x="207" y="1348" width="160" height="30" as="geometry"/>
                </mxCell>
                <mxCell id="58" value="nuc-ITS&lt;br&gt;AY953382" style="ellipse;whiteSpace=wrap;html=1;aspect=fixed;strokeWidth=2;fillStyle=solid;fontStyle=1;fillColor=none;" parent="1" vertex="1">
                    <mxGeometry x="1034" y="865" width="70" height="70" as="geometry"/>
                </mxCell>
                <mxCell id="63" value="EF1&lt;br&gt;EF433316" style="ellipse;whiteSpace=wrap;html=1;aspect=fixed;strokeWidth=2;fillStyle=solid;fontStyle=1;fillColor=none;" parent="1" vertex="1">
                    <mxGeometry x="1034" y="1010" width="70" height="70" as="geometry"/>
                </mxCell>
                <mxCell id="64" value="TUB1&lt;br&gt;EF433307" style="ellipse;whiteSpace=wrap;html=1;aspect=fixed;strokeWidth=2;fillStyle=solid;fontStyle=1;fillColor=none;" parent="1" vertex="1">
                    <mxGeometry x="1034" y="1155" width="70" height="70" as="geometry"/>
                </mxCell>
                <mxCell id="65" value="RPB2&lt;br&gt;KJ601618" style="ellipse;whiteSpace=wrap;html=1;aspect=fixed;strokeWidth=2;fillStyle=solid;fontStyle=1;fillColor=none;" parent="1" vertex="1">
                    <mxGeometry x="1034" y="1300" width="70" height="70" as="geometry"/>
                </mxCell>
                <mxCell id="66" value="MS204&lt;br&gt;KJ601582" style="ellipse;whiteSpace=wrap;html=1;aspect=fixed;strokeWidth=2;fillStyle=solid;fontStyle=1;fillColor=none;" parent="1" vertex="1">
                    <mxGeometry x="1034" y="1445" width="70" height="70" as="geometry"/>
                </mxCell>
                <mxCell id="94" value="&lt;font style=&quot;font-size: 16px;&quot;&gt;Ceratocystis mangicola&lt;/font&gt;" style="ellipse;whiteSpace=wrap;html=1;aspect=fixed;strokeWidth=2;fillStyle=solid;fontStyle=1;fillColor=none;" parent="1" vertex="1">
                    <mxGeometry x="1151.5" y="1117.5" width="115" height="115" as="geometry"/>
                </mxCell>
                <mxCell id="108" value="" style="shape=curlyBracket;whiteSpace=wrap;html=1;rounded=1;labelPosition=left;verticalLabelPosition=middle;align=right;verticalAlign=middle;rotation=90;" parent="1" vertex="1">
                    <mxGeometry x="272" y="797" width="20" height="150" as="geometry"/>
                </mxCell>
                <mxCell id="110" value="" style="shape=curlyBracket;whiteSpace=wrap;html=1;rounded=1;labelPosition=left;verticalLabelPosition=middle;align=right;verticalAlign=middle;rotation=90;" parent="1" vertex="1">
                    <mxGeometry x="552" y="797" width="20" height="150" as="geometry"/>
                </mxCell>
                <mxCell id="111" value="" style="shape=curlyBracket;whiteSpace=wrap;html=1;rounded=1;labelPosition=left;verticalLabelPosition=middle;align=right;verticalAlign=middle;rotation=90;" parent="1" vertex="1">
                    <mxGeometry x="718" y="797" width="20" height="150" as="geometry"/>
                </mxCell>
                <mxCell id="73" style="edgeStyle=none;html=1;exitX=1;exitY=0.5;exitDx=0;exitDy=0;strokeWidth=2;fillColor=#6d8764;strokeColor=#3A5431;flowAnimation=1;" parent="1" source="34" target="63" edge="1">
                    <mxGeometry relative="1" as="geometry"/>
                </mxCell>
                <mxCell id="74" style="edgeStyle=none;html=1;exitX=1;exitY=0.5;exitDx=0;exitDy=0;strokeWidth=2;fillColor=#6d8764;strokeColor=#3A5431;flowAnimation=1;" parent="1" source="34" target="64" edge="1">
                    <mxGeometry relative="1" as="geometry"/>
                </mxCell>
                <mxCell id="89" style="edgeStyle=none;html=1;exitX=1;exitY=0.5;exitDx=0;exitDy=0;strokeWidth=2;fillColor=#6d8764;strokeColor=#3A5431;flowAnimation=1;" parent="1" source="34" target="65" edge="1">
                    <mxGeometry relative="1" as="geometry"/>
                </mxCell>
                <mxCell id="90" style="edgeStyle=none;html=1;exitX=1;exitY=0.5;exitDx=0;exitDy=0;strokeWidth=2;fillColor=#6d8764;strokeColor=#3A5431;flowAnimation=1;" parent="1" source="34" target="66" edge="1">
                    <mxGeometry relative="1" as="geometry"/>
                </mxCell>
                <mxCell id="87" style="edgeStyle=none;html=1;exitX=1;exitY=0.5;exitDx=0;exitDy=0;strokeWidth=2;fillColor=#e3c800;strokeColor=#B09500;flowAnimation=1;" parent="1" source="27" target="65" edge="1">
                    <mxGeometry relative="1" as="geometry"/>
                </mxCell>
                <mxCell id="88" style="edgeStyle=none;html=1;exitX=1;exitY=0.5;exitDx=0;exitDy=0;strokeWidth=2;fillColor=#e3c800;strokeColor=#B09500;flowAnimation=1;" parent="1" source="27" target="66" edge="1">
                    <mxGeometry relative="1" as="geometry"/>
                </mxCell>
                <mxCell id="71" style="edgeStyle=none;html=1;exitX=1;exitY=0.5;exitDx=0;exitDy=0;strokeWidth=2;fillColor=#e3c800;strokeColor=#B09500;flowAnimation=1;" parent="1" source="29" target="63" edge="1">
                    <mxGeometry relative="1" as="geometry"/>
                </mxCell>
                <mxCell id="72" style="edgeStyle=none;html=1;exitX=1;exitY=0.5;exitDx=0;exitDy=0;strokeWidth=2;fillColor=#e3c800;strokeColor=#B09500;flowAnimation=1;" parent="1" source="29" target="64" edge="1">
                    <mxGeometry relative="1" as="geometry"/>
                </mxCell>
                <mxCell id="60" style="edgeStyle=none;html=1;exitX=1;exitY=0.5;exitDx=0;exitDy=0;strokeWidth=2;fillColor=#f0a30a;strokeColor=#BD7000;flowAnimation=1;" parent="1" source="17" target="58" edge="1">
                    <mxGeometry relative="1" as="geometry"/>
                </mxCell>
                <mxCell id="69" style="edgeStyle=none;html=1;exitX=1;exitY=0.5;exitDx=0;exitDy=0;strokeWidth=2;fillColor=#f0a30a;strokeColor=#BD7000;flowAnimation=1;" parent="1" source="17" target="63" edge="1">
                    <mxGeometry relative="1" as="geometry">
                        <mxPoint x="864" y="1105" as="sourcePoint"/>
                    </mxGeometry>
                </mxCell>
                <mxCell id="70" style="edgeStyle=none;html=1;exitX=1;exitY=0.5;exitDx=0;exitDy=0;strokeWidth=2;fillColor=#f0a30a;strokeColor=#BD7000;flowAnimation=1;" parent="1" source="17" target="64" edge="1">
                    <mxGeometry relative="1" as="geometry"/>
                </mxCell>
                <mxCell id="83" style="edgeStyle=none;html=1;exitX=1;exitY=0.5;exitDx=0;exitDy=0;strokeWidth=2;fillColor=#f0a30a;strokeColor=#BD7000;flowAnimation=1;" parent="1" source="19" target="65" edge="1">
                    <mxGeometry relative="1" as="geometry"/>
                </mxCell>
                <mxCell id="84" style="edgeStyle=none;html=1;exitX=1;exitY=0.5;exitDx=0;exitDy=0;strokeWidth=2;fillColor=#f0a30a;strokeColor=#BD7000;flowAnimation=1;" parent="1" source="19" target="66" edge="1">
                    <mxGeometry relative="1" as="geometry"/>
                </mxCell>
                <mxCell id="85" style="edgeStyle=none;html=1;exitX=1;exitY=0.5;exitDx=0;exitDy=0;strokeWidth=2;fillColor=#f0a30a;strokeColor=#BD7000;flowAnimation=1;" parent="1" source="24" target="65" edge="1">
                    <mxGeometry relative="1" as="geometry"/>
                </mxCell>
                <mxCell id="86" style="edgeStyle=none;html=1;exitX=1;exitY=0.5;exitDx=0;exitDy=0;strokeWidth=2;fillColor=#f0a30a;strokeColor=#BD7000;flowAnimation=1;" parent="1" source="24" target="66" edge="1">
                    <mxGeometry relative="1" as="geometry"/>
                </mxCell>
                <mxCell id="59" style="edgeStyle=none;html=1;exitX=1;exitY=0.5;exitDx=0;exitDy=0;strokeWidth=2;fillColor=#e51400;strokeColor=#B20000;flowAnimation=1;" parent="1" source="7" target="58" edge="1">
                    <mxGeometry relative="1" as="geometry"/>
                </mxCell>
                <mxCell id="67" style="edgeStyle=none;html=1;exitX=1;exitY=0.5;exitDx=0;exitDy=0;strokeWidth=2;fillColor=#e51400;strokeColor=#B20000;flowAnimation=1;" parent="1" source="10" target="63" edge="1">
                    <mxGeometry relative="1" as="geometry"/>
                </mxCell>
                <mxCell id="68" style="edgeStyle=none;html=1;exitX=1;exitY=0.5;exitDx=0;exitDy=0;strokeWidth=2;fillColor=#e51400;strokeColor=#B20000;flowAnimation=1;" parent="1" source="10" target="64" edge="1">
                    <mxGeometry relative="1" as="geometry"/>
                </mxCell>
                <mxCell id="81" style="edgeStyle=none;html=1;exitX=1;exitY=0.5;exitDx=0;exitDy=0;strokeWidth=2;fillColor=#e51400;strokeColor=#B20000;flowAnimation=1;" parent="1" source="12" target="65" edge="1">
                    <mxGeometry relative="1" as="geometry"/>
                </mxCell>
                <mxCell id="82" style="edgeStyle=none;html=1;exitX=1;exitY=0.5;exitDx=0;exitDy=0;strokeWidth=2;fillColor=#e51400;strokeColor=#B20000;flowAnimation=1;" parent="1" source="12" target="66" edge="1">
                    <mxGeometry relative="1" as="geometry"/>
                </mxCell>
                <mxCell id="112" value="METADATA" style="text;html=1;strokeColor=none;fillColor=none;align=center;verticalAlign=middle;whiteSpace=wrap;rounded=0;fontSize=14;" parent="1" vertex="1">
                    <mxGeometry x="442" y="1547" width="137" height="30" as="geometry"/>
                </mxCell>
                <mxCell id="113" value="" style="shape=curlyBracket;whiteSpace=wrap;html=1;rounded=1;labelPosition=left;verticalLabelPosition=middle;align=right;verticalAlign=middle;rotation=-90;" parent="1" vertex="1">
                    <mxGeometry x="500.5" y="1232.5" width="20" height="605" as="geometry"/>
                </mxCell>
                <mxCell id="114" value="NODES" style="text;html=1;strokeColor=none;fillColor=none;align=center;verticalAlign=middle;whiteSpace=wrap;rounded=0;fontSize=14;" parent="1" vertex="1">
                    <mxGeometry x="1000" y="1547" width="137" height="30" as="geometry"/>
                </mxCell>
                <mxCell id="115" value="" style="shape=curlyBracket;whiteSpace=wrap;html=1;rounded=1;labelPosition=left;verticalLabelPosition=middle;align=right;verticalAlign=middle;rotation=-90;" parent="1" vertex="1">
                    <mxGeometry x="1056.75" y="1466.25" width="20" height="137.5" as="geometry"/>
                </mxCell>
                <mxCell id="116" value="CONNECTIONS" style="text;html=1;strokeColor=none;fillColor=none;align=center;verticalAlign=middle;whiteSpace=wrap;rounded=0;fontSize=14;" parent="1" vertex="1">
                    <mxGeometry x="1141" y="1547" width="137" height="30" as="geometry"/>
                </mxCell>
                <mxCell id="117" value="" style="shape=curlyBracket;whiteSpace=wrap;html=1;rounded=1;labelPosition=left;verticalLabelPosition=middle;align=right;verticalAlign=middle;rotation=-90;" parent="1" vertex="1">
                    <mxGeometry x="1197.75" y="1466.25" width="20" height="137.5" as="geometry"/>
                </mxCell>
                <mxCell id="134" value="" style="group" parent="1" vertex="1" connectable="0">
                    <mxGeometry x="190" y="780" width="1170" height="30" as="geometry"/>
                </mxCell>
                <mxCell id="127" value="&lt;font style=&quot;font-size: 16px;&quot;&gt;OTHERS (0)&lt;/font&gt;" style="shape=step;perimeter=stepPerimeter;whiteSpace=wrap;html=1;fixedSize=1;size=10;strokeWidth=0.5;fillStyle=solid;fontStyle=1;" parent="134" vertex="1">
                    <mxGeometry x="1019.3686556078236" width="150.63134439217626" height="30" as="geometry"/>
                </mxCell>
                <mxCell id="132" value="&lt;span style=&quot;font-size: 16px; font-weight: 400;&quot;&gt;METADATA IMPORTANCE ORDER&lt;/span&gt;" style="shape=step;perimeter=stepPerimeter;whiteSpace=wrap;html=1;fixedSize=1;size=0;strokeWidth=0.5;fillStyle=solid;fontStyle=1;" parent="134" vertex="1">
                    <mxGeometry width="370.78484773458774" height="30" as="geometry"/>
                </mxCell>
                <mxCell id="123" value="&lt;font style=&quot;font-size: 16px;&quot;&gt;INDIVIDUAL (8)&lt;/font&gt;" style="shape=step;perimeter=stepPerimeter;whiteSpace=wrap;html=1;fixedSize=1;size=10;strokeWidth=0.5;fillStyle=solid;fillColor=#e51400;fontColor=#ffffff;fontStyle=1;strokeColor=#B20000;" parent="134" vertex="1">
                    <mxGeometry x="352.2456053478583" width="173.80539737558797" height="30" as="geometry"/>
                </mxCell>
                <mxCell id="124" value="&lt;font style=&quot;font-size: 16px;&quot;&gt;LINEAGE (5)&lt;/font&gt;" style="shape=step;perimeter=stepPerimeter;whiteSpace=wrap;html=1;fixedSize=1;size=10;strokeWidth=0.5;fillStyle=solid;fillColor=#f0a30a;fontColor=#000000;fontStyle=1;strokeColor=#BD7000;" parent="134" vertex="1">
                    <mxGeometry x="510.9878682842287" width="161.05966823471152" height="30" as="geometry"/>
                </mxCell>
                <mxCell id="125" value="&lt;font style=&quot;font-size: 16px;&quot;&gt;ECOLOGY (3)&lt;/font&gt;" style="shape=step;perimeter=stepPerimeter;whiteSpace=wrap;html=1;fixedSize=1;size=10;strokeWidth=0.5;fillStyle=solid;fillColor=#e3c800;fontColor=#000000;fontStyle=1;strokeColor=#B09500;" parent="134" vertex="1">
                    <mxGeometry x="660.4605100272345" width="162.21837088388213" height="30" as="geometry"/>
                </mxCell>
                <mxCell id="126" value="&lt;font style=&quot;font-size: 16px;&quot;&gt;GEOLOCATION (2)&lt;/font&gt;" style="shape=step;perimeter=stepPerimeter;whiteSpace=wrap;html=1;fixedSize=1;size=10;strokeWidth=0.5;fillStyle=solid;fillColor=#6d8764;fontColor=#ffffff;fontStyle=1;strokeColor=#3A5431;" parent="134" vertex="1">
                    <mxGeometry x="811.0918544194107" width="220.15350334241145" height="30" as="geometry"/>
                </mxCell>
                <mxCell id="151" value="Graphical representation of MIG's importance" style="text;html=1;align=right;verticalAlign=middle;whiteSpace=wrap;rounded=0;fontSize=16;" vertex="1" parent="1">
                    <mxGeometry x="1130" y="835" width="223.5" height="30" as="geometry"/>
                </mxCell>
                <mxCell id="152" value="" style="group" vertex="1" connectable="0" parent="1">
                    <mxGeometry x="1197.75" y="890" width="155" height="155" as="geometry"/>
                </mxCell>
                <mxCell id="135" value="" style="ellipse;whiteSpace=wrap;html=1;aspect=fixed;fillColor=#FFFFFF;" vertex="1" parent="152">
                    <mxGeometry width="155" height="155" as="geometry"/>
                </mxCell>
                <mxCell id="137" value="" style="ellipse;whiteSpace=wrap;html=1;aspect=fixed;fillColor=#6d8764;fontColor=#ffffff;strokeColor=#3A5431;" vertex="1" parent="152">
                    <mxGeometry x="8.75" y="6" width="120" height="120" as="geometry"/>
                </mxCell>
                <mxCell id="138" value="" style="ellipse;whiteSpace=wrap;html=1;aspect=fixed;fillColor=#e3c800;fontColor=#000000;strokeColor=#B09500;" vertex="1" parent="152">
                    <mxGeometry x="14.75" y="13" width="90" height="90" as="geometry"/>
                </mxCell>
                <mxCell id="139" value="" style="ellipse;whiteSpace=wrap;html=1;aspect=fixed;fillColor=#f0a30a;fontColor=#000000;strokeColor=#BD7000;" vertex="1" parent="152">
                    <mxGeometry x="22.5" y="19" width="60" height="60" as="geometry"/>
                </mxCell>
                <mxCell id="140" value="" style="ellipse;whiteSpace=wrap;html=1;aspect=fixed;fillColor=#e51400;fontColor=#ffffff;strokeColor=#B20000;" vertex="1" parent="152">
                    <mxGeometry x="30.75" y="25" width="33" height="33" as="geometry"/>
                </mxCell>
                <mxCell id="141" value="&lt;b&gt;&lt;font style=&quot;font-size: 16px;&quot;&gt;8&lt;/font&gt;&lt;/b&gt;" style="text;html=1;strokeColor=none;fillColor=none;align=center;verticalAlign=middle;whiteSpace=wrap;rounded=0;fontColor=#FFFFFF;" vertex="1" parent="152">
                    <mxGeometry x="35.5" y="26.5" width="23.5" height="30" as="geometry"/>
                </mxCell>
                <mxCell id="142" value="&lt;b&gt;&lt;font color=&quot;#121212&quot; style=&quot;font-size: 16px;&quot;&gt;5&lt;/font&gt;&lt;/b&gt;" style="text;html=1;strokeColor=none;fillColor=none;align=center;verticalAlign=middle;whiteSpace=wrap;rounded=0;" vertex="1" parent="152">
                    <mxGeometry x="54" y="47" width="23.5" height="30" as="geometry"/>
                </mxCell>
                <mxCell id="143" value="&lt;b&gt;&lt;font color=&quot;#121212&quot; style=&quot;font-size: 16px;&quot;&gt;3&lt;/font&gt;&lt;/b&gt;" style="text;html=1;strokeColor=none;fillColor=none;align=center;verticalAlign=middle;whiteSpace=wrap;rounded=0;" vertex="1" parent="152">
                    <mxGeometry x="69.75" y="65" width="23.5" height="30" as="geometry"/>
                </mxCell>
                <mxCell id="144" value="&lt;b&gt;&lt;font style=&quot;font-size: 16px;&quot;&gt;2&lt;/font&gt;&lt;/b&gt;" style="text;html=1;strokeColor=none;fillColor=none;align=center;verticalAlign=middle;whiteSpace=wrap;rounded=0;fontColor=#FFFFFF;" vertex="1" parent="152">
                    <mxGeometry x="88.25" y="84" width="23.5" height="30" as="geometry"/>
                </mxCell>
                <mxCell id="145" value="&lt;b&gt;&lt;font style=&quot;font-size: 16px;&quot;&gt;0&lt;/font&gt;&lt;/b&gt;" style="text;html=1;strokeColor=none;fillColor=none;align=center;verticalAlign=middle;whiteSpace=wrap;rounded=0;fontColor=#050505;" vertex="1" parent="152">
                    <mxGeometry x="107" y="108" width="23.5" height="30" as="geometry"/>
                </mxCell>
            </root>
        </mxGraphModel>
    </diagram>
</mxfile>
